<svg xmlns="http://www.w3.org/2000/svg" viewBox="0 0 100 100">
  <rect width="100" height="100" rx="12" fill="#9b87f5"/>
  <path d="M50 15 C45 30, 30 40, 30 55 C30 70, 38 80, 50 85 C62 80, 70 70, 70 55 C70 40, 55 30, 50 15Z" fill="#FFD700" opacity="0.9"/>
  <path d="M50 30 C47 40, 38 47, 38 57 C38 67, 43 73, 50 76 C57 73, 62 67, 62 57 C62 47, 53 40, 50 30Z" fill="#FF6B35" opacity="0.85"/>
  <path d="M50 42 C48 48, 44 52, 44 58 C44 64, 46 68, 50 70 C54 68, 56 64, 56 58 C56 52, 52 48, 50 42Z" fill="white" opacity="0.9"/>
</svg>
